<?xml version="1.0" encoding="UTF-8" standalone="no"?>
<!-- Created with Inkscape (http://www.inkscape.org/) -->

<svg
   xmlns:dc="http://purl.org/dc/elements/1.1/"
   xmlns:cc="http://creativecommons.org/ns#"
   xmlns:rdf="http://www.w3.org/1999/02/22-rdf-syntax-ns#"
   xmlns:svg="http://www.w3.org/2000/svg"
   xmlns="http://www.w3.org/2000/svg"
   xmlns:sodipodi="http://sodipodi.sourceforge.net/DTD/sodipodi-0.dtd"
   xmlns:inkscape="http://www.inkscape.org/namespaces/inkscape"
   id="svg2"
   version="1.1"
   inkscape:version="0.48.2 r9819"
   width="813.21991"
   height="244.61626"
   xml:space="preserve"
   sodipodi:docname="myria-logo.svg"><metadata
     id="metadata8"><rdf:RDF><cc:Work
         rdf:about=""><dc:format>image/svg+xml</dc:format><dc:type
           rdf:resource="http://purl.org/dc/dcmitype/StillImage" /><dc:title></dc:title></cc:Work></rdf:RDF></metadata><defs
     id="defs6"><clipPath
       clipPathUnits="userSpaceOnUse"
       id="clipPath18"><path
         d="M 0,5952.75 0,0 l 8418.9,0 0,5952.75 -8418.9,0 z"
         id="path20"
         inkscape:connector-curvature="0" /></clipPath></defs><sodipodi:namedview
     pagecolor="#ffffff"
     bordercolor="#666666"
     borderopacity="1"
     objecttolerance="10"
     gridtolerance="10"
     guidetolerance="10"
     inkscape:pageopacity="0"
     inkscape:pageshadow="2"
     inkscape:window-width="1276"
     inkscape:window-height="756"
     id="namedview4"
     showgrid="false"
     inkscape:zoom="1"
     inkscape:cx="271.62273"
     inkscape:cy="142.69364"
     inkscape:window-x="5"
     inkscape:window-y="0"
     inkscape:window-maximized="0"
     inkscape:current-layer="g10"
     fit-margin-top="0"
     fit-margin-left="0"
     fit-margin-right="0"
     fit-margin-bottom="0" /><g
     id="g10"
     inkscape:groupmode="layer"
     inkscape:label="ink_ext_XXXXXX"
     transform="matrix(1.25,0,0,-1.25,-114.47759,514.72751)"><g
       id="g2992"><path
         d="m 363.703,253.331 c 0,-3.314 2.84,-5.049 9.468,-5.049 l 4.577,0 c 6.627,0 9.467,1.735 9.467,5.049 l 0,65.332 0.632,0.158 22.882,-40.872 c 1.42,-1.894 3.313,-2.998 6.313,-2.998 l 4.575,0 c 2.998,0 4.893,1.104 6.313,2.998 l 22.882,40.872 0.63,-0.158 0,-65.332 c 0,-3.314 2.841,-5.049 9.469,-5.049 l 4.575,0 c 6.629,0 9.47,1.735 9.47,5.049 l 0,100.996 c 0,3.314 -2.841,5.05 -9.47,5.05 l -8.205,0 c -4.577,0 -8.206,-1.104 -9.941,-4.261 l -28.09,-49.394 -27.773,49.394 c -1.736,3.157 -5.366,4.261 -9.943,4.261 l -8.363,0 c -6.628,0 -9.468,-1.736 -9.468,-5.05 l 0,-100.996 z m 307.917,17.044 c 0,-12.809 6.312,-22.883 23.355,-22.883 14.518,0 22.092,9.916 23.198,11.967 0.946,-4.391 1.262,-11.02 6.311,-11.02 3.946,0 17.674,1.263 17.674,5.05 0,3.313 -1.892,6.628 -1.892,22.882 l 0,29.667 c 0,15.307 -8.995,26.354 -33.929,26.354 -17.518,0 -30.141,-5.523 -30.141,-10.888 0,-3.314 4.892,-12.625 8.205,-12.625 1.894,0 8.679,5.049 20.2,5.049 8.679,0 12.309,-2.997 12.309,-8.994 l 0,-5.208 c -40.084,0 -45.29,-16.412 -45.29,-29.351 z m 23.196,2.419 c 0,7.547 7.102,11.625 22.094,11.625 l 0,-8.626 c -2.525,-5.656 -8.206,-9.915 -14.203,-9.915 -5.207,0 -7.891,2.997 -7.891,6.916 z m -53.781,71.907 4.418,0 c 6.628,0 9.469,1.736 9.469,5.05 l 0,12.781 c 0,3.315 -2.841,5.051 -9.469,5.051 l -4.418,0 c -6.629,0 -9.469,-1.736 -9.469,-5.051 l 0,-12.781 c 0,-3.314 2.84,-5.05 9.469,-5.05 z m -9.469,-91.37 c 0,-3.314 2.84,-5.049 9.469,-5.049 l 4.418,0 c 6.628,0 9.469,1.735 9.469,5.049 l 0,73.065 c 0,3.314 -2.841,5.048 -9.469,5.048 l -4.418,0 c -6.629,0 -9.469,-1.734 -9.469,-5.048 l 0,-73.065 z m -58.2,0 c 0,-3.314 2.841,-5.049 9.469,-5.049 l 4.418,0 c 6.628,0 9.469,1.735 9.469,5.049 l 0,50.656 c 1.893,3.156 6.154,7.89 12.624,7.89 3.156,0 5.207,-1.262 7.418,-1.262 3.155,0 4.89,10.257 4.89,13.256 0,3.156 -1.261,8.521 -8.994,8.521 -9.153,0 -13.887,-5.996 -17.201,-11.993 -0.947,3.945 -1.263,10.257 -6.313,10.257 -3.945,0 -17.673,-1.263 -17.673,-5.049 0,-3.157 1.893,-6.471 1.893,-22.251 l 0,-50.025 z m -58.358,-4.734 -9.942,-26.353 c -0.473,-1.106 -0.631,-2.052 -0.631,-2.841 0,-2.052 2.999,-3.314 9.468,-3.314 l 2.683,0 c 4.576,0 7.891,0.79 8.838,3.314 l 36.138,105.73 c 0.315,1.104 0.471,2.051 0.471,2.841 0,2.209 -2.84,3.47 -9.467,3.47 l -3.787,0 c -4.577,0 -8.063,-0.784 -8.838,-3.313 l -13.729,-44.809 c -0.925,0 -13.207,41.164 -14.36,44.809 -0.797,2.522 -4.261,3.313 -8.836,3.313 l -5.051,0 c -6.627,0 -9.626,-1.261 -9.626,-3.47 0,-0.79 0.315,-1.737 0.631,-2.841 l 26.038,-76.536"
         style="fill:#ffffff;fill-opacity:1;fill-rule:evenodd;stroke:none"
         id="path24"
         inkscape:connector-curvature="0" /><path
         d="m 192.591,340.672 -8.197,9.614 42.766,7.89 -14.551,-40.981 -8.697,10.2 c -6.817,-6.143 -12.906,-13.788 -15.919,-22.506 -2.035,-5.886 -2.573,-12.277 -0.7,-18.28 1.847,-5.922 5.794,-10.669 10.84,-14.182 9.833,-6.844 23.16,-8.864 34.841,-8.865 l 55.655,1.467 c 10.301,0 20.209,3.934 27.628,11.096 24.566,23.716 11.857,66.422 -17.535,80.678 l 1.354,-0.271 c 12.694,-2.535 24.258,-9.275 32.617,-19.172 18.517,-21.929 16.708,-53.589 -3.903,-73.485 -10.783,-10.409 -25.189,-16.12 -40.12,-16.119 l -55.654,-1.466 c -15.577,0 -32.202,3.085 -45.2,12.132 -8.247,5.742 -14.523,13.572 -17.532,23.22 -2.946,9.445 -2.309,19.456 0.9,28.743 4.083,11.815 12.102,22.066 21.407,30.287"
         style="fill:#c1961a;fill-opacity:1;fill-rule:evenodd;stroke:none"
         id="path26"
         inkscape:connector-curvature="0" /><path
         d="m 147.962,339.392 c -43.521,-7.076 -51.6975,-56.763 -17.842,-76.99 14.526,-8.677 27.961,-11.466 51.942,-13.588 -32.366,-2.18 -72.586,-1.99 -86.8249,33.317 -6.884,17.07 -4.3316,37.681 10.1139,54.165 7.508,8.567 17.473,14.674 28.471,17.582 3.581,9.629 9.93,17.992 18.127,24.184 9.866,7.453 21.851,11.399 34.208,11.399 2.622,0 5.244,-0.192 7.842,-0.548 0.501,-0.068 1,-0.143 1.498,-0.226 12.711,15.872 31.167,25.482 51.821,22.58 10.835,-1.521 21.075,-6.503 28.818,-14.256 7.864,-7.874 12.65,-18.096 13.314,-29.254 1.335,-22.379 -13.825,-41.373 -30.612,-54.417 l 8.374,-9.82 -42.763,-7.89 14.55,40.981 8.509,-9.982 c 12.241,9.429 25.204,23.732 24.224,40.169 -0.416,6.965 -3.438,13.314 -8.341,18.225 -4.986,4.992 -11.592,8.188 -18.569,9.169 -15.998,2.247 -29.497,-7.195 -38.179,-19.914 l -3.605,-5.281 -6.238,1.756 c -1.715,0.484 -3.465,0.841 -5.228,1.083 -1.793,0.244 -3.606,0.352 -5.415,0.352 -8.421,0 -16.606,-2.645 -23.337,-7.729 -9.281,-7.01 -12.14,-14.411 -14.858,-25.067"
         style="fill:#ffffff;fill-opacity:1;fill-rule:evenodd;stroke:none"
         id="path28"
         inkscape:connector-curvature="0" /></g></g></svg>